<svg width="180" height="180" viewBox="0 0 180 180" fill="none" xmlns="http://www.w3.org/2000/svg">
<rect x="80" width="20" height="180" fill="white"/>
<path fill-rule="evenodd" clip-rule="evenodd" d="M92.388 141.732C97.4134 153.864 100 166.868 100 180H80C80 169.494 77.9307 159.091 73.9104 149.385C69.89 139.679 63.9972 130.86 56.5685 123.431C49.1399 116.003 40.3207 110.11 30.6147 106.09C20.9086 102.069 10.5058 100 8.74228e-07 100L0 80C13.1322 80 26.1358 82.5866 38.2683 87.612C50.4009 92.6375 61.4248 100.003 70.7107 109.289C79.9965 118.575 87.3625 129.599 92.388 141.732Z" fill="white"/>
<path fill-rule="evenodd" clip-rule="evenodd" d="M141.732 87.612C153.864 82.5866 166.868 80 180 80L180 100C169.494 100 159.091 102.069 149.385 106.09C139.679 110.11 130.86 116.003 123.431 123.431C116.003 130.86 110.11 139.679 106.09 149.385C102.069 159.091 100 169.494 100 180L80 180C80 166.868 82.5866 153.864 87.612 141.732C92.6375 129.599 100.003 118.575 109.289 109.289C118.575 100.003 129.599 92.6375 141.732 87.612Z" fill="white"/>
</svg>
