<svg width="68" height="68" viewBox="0 0 68 68" fill="none" xmlns="http://www.w3.org/2000/svg">
<path d="M7.33341 14H0.666748V60.6667C0.666748 64.3334 3.66675 67.3334 7.33341 67.3334H54.0001V60.6667H7.33341V14ZM60.6667 0.666687H20.6667C17.0001 0.666687 14.0001 3.66669 14.0001 7.33335V47.3334C14.0001 51 17.0001 54 20.6667 54H60.6667C64.3334 54 67.3334 51 67.3334 47.3334V7.33335C67.3334 3.66669 64.3334 0.666687 60.6667 0.666687ZM57.3334 30.6667H44.0001V44H37.3334V30.6667H24.0001V24H37.3334V10.6667H44.0001V24H57.3334V30.6667Z" fill="white"/>
</svg>
